# Blender v2.92.0 OBJ File: ''
# www.blender.org
mtllib cylinder2.mtl
o Cylinder
v 0.000000 -23.656731 -16.175673
v 0.000000 23.656734 -16.175665
v 3.155716 23.656734 -15.864854
v 3.155716 -23.656731 -15.864861
v 6.190161 23.656734 -14.944365
v 6.190161 -23.656731 -14.944372
v 8.986720 23.656734 -13.449573
v 8.986720 -23.656731 -13.449580
v 11.437924 23.656734 -11.437921
v 11.437924 -23.656731 -11.437928
v 13.449577 23.656734 -8.986715
v 13.449577 -23.656731 -8.986723
v 14.944368 23.656734 -6.190156
v 14.944368 -23.656731 -6.190164
v 15.864858 23.656733 -3.155713
v 15.864858 -23.656733 -3.155721
v 16.175669 23.656733 0.000003
v 16.175669 -23.656733 -0.000005
v 15.864859 23.656733 3.155719
v 15.864859 -23.656733 3.155711
v 14.944369 23.656731 6.190162
v 14.944369 -23.656734 6.190154
v 13.449577 23.656731 8.986723
v 13.449577 -23.656734 8.986715
v 11.437924 23.656731 11.437928
v 11.437924 -23.656734 11.437921
v 8.986719 23.656731 13.449581
v 8.986719 -23.656734 13.449574
v 6.190158 23.656731 14.944374
v 6.190158 -23.656734 14.944366
v 3.155713 23.656731 15.864862
v 3.155713 -23.656734 15.864855
v -0.000005 23.656731 16.175673
v -0.000005 -23.656734 16.175665
v -3.155723 23.656731 15.864861
v -3.155723 -23.656734 15.864853
v -6.190167 23.656731 14.944370
v -6.190167 -23.656734 14.944363
v -8.986728 23.656731 13.449575
v -8.986728 -23.656734 13.449568
v -11.437933 23.656731 11.437922
v -11.437933 -23.656734 11.437914
v -13.449583 23.656731 8.986714
v -13.449583 -23.656734 8.986707
v -14.944375 23.656731 6.190152
v -14.944375 -23.656734 6.190144
v -15.864861 23.656733 3.155706
v -15.864861 -23.656733 3.155698
v -16.175669 23.656733 -0.000012
v -16.175669 -23.656733 -0.000020
v -15.864855 23.656733 -3.155729
v -15.864855 -23.656733 -3.155737
v -14.944362 23.656734 -6.190173
v -14.944362 -23.656731 -6.190181
v -13.449566 23.656734 -8.986732
v -13.449566 -23.656731 -8.986740
v -11.437910 23.656734 -11.437936
v -11.437910 -23.656731 -11.437943
v -8.986702 23.656734 -13.449586
v -8.986702 -23.656731 -13.449594
v -6.190139 23.656734 -14.944375
v -6.190139 -23.656731 -14.944383
v -3.155692 23.656734 -15.864859
v -3.155692 -23.656731 -15.864866
v 0.000000 -23.656731 -15.250672
v 0.000000 23.656734 -15.250665
v 2.975272 23.656734 -14.957639
v 2.975272 -23.656731 -14.957646
v 5.836190 23.656734 -14.089797
v 5.836190 -23.656731 -14.089805
v 8.472828 23.656734 -12.680485
v 8.472828 -23.656731 -12.680492
v 10.783873 23.656734 -10.783869
v 10.783873 -23.656731 -10.783876
v 12.680490 23.656734 -8.472823
v 12.680490 -23.656731 -8.472831
v 14.089801 23.656733 -5.836185
v 14.089801 -23.656733 -5.836192
v 14.957643 23.656733 -2.975269
v 14.957643 -23.656733 -2.975277
v 15.250669 23.656733 0.000003
v 15.250669 -23.656733 -0.000005
v 14.957644 23.656733 2.975275
v 14.957644 -23.656733 2.975267
v 14.089802 23.656733 5.836190
v 14.089802 -23.656733 5.836183
v 12.680490 23.656731 8.472831
v 12.680490 -23.656734 8.472823
v 10.783873 23.656731 10.783876
v 10.783873 -23.656734 10.783869
v 8.472827 23.656731 12.680493
v 8.472827 -23.656734 12.680486
v 5.836186 23.656731 14.089807
v 5.836186 -23.656734 14.089799
v 2.975269 23.656731 14.957647
v 2.975269 -23.656734 14.957640
v -0.000005 23.656731 15.250672
v -0.000005 -23.656734 15.250665
v -2.975279 23.656731 14.957645
v -2.975279 -23.656734 14.957638
v -5.836196 23.656731 14.089803
v -5.836196 -23.656734 14.089795
v -8.472836 23.656731 12.680488
v -8.472836 -23.656734 12.680480
v -10.783881 23.656731 10.783870
v -10.783881 -23.656734 10.783862
v -12.680495 23.656731 8.472822
v -12.680495 -23.656734 8.472815
v -14.089808 23.656733 5.836181
v -14.089808 -23.656733 5.836173
v -14.957645 23.656733 2.975262
v -14.957645 -23.656733 2.975255
v -15.250697 23.656733 -0.000012
v -15.250697 -23.656733 -0.000020
v -14.957640 23.656733 -2.975286
v -14.957640 -23.656733 -2.975293
v -14.089794 23.656733 -5.836202
v -14.089794 -23.656733 -5.836209
v -12.680478 23.656734 -8.472840
v -12.680478 -23.656731 -8.472848
v -10.783858 23.656734 -10.783884
v -10.783858 -23.656731 -10.783892
v -8.472810 23.656734 -12.680498
v -8.472810 -23.656731 -12.680506
v -5.836167 23.656734 -14.089808
v -5.836167 -23.656731 -14.089815
v -2.975248 23.656734 -14.957644
v -2.975248 -23.656731 -14.957651
vt 1.000000 0.500000
vt 1.000000 1.000000
vt 0.968750 1.000000
vt 0.968750 0.500000
vt 0.937500 1.000000
vt 0.937500 0.500000
vt 0.906250 1.000000
vt 0.906250 0.500000
vt 0.875000 1.000000
vt 0.875000 0.500000
vt 0.843750 1.000000
vt 0.843750 0.500000
vt 0.812500 1.000000
vt 0.812500 0.500000
vt 0.781250 1.000000
vt 0.781250 0.500000
vt 0.750000 1.000000
vt 0.750000 0.500000
vt 0.718750 1.000000
vt 0.718750 0.500000
vt 0.687500 1.000000
vt 0.687500 0.500000
vt 0.656250 1.000000
vt 0.656250 0.500000
vt 0.625000 1.000000
vt 0.625000 0.500000
vt 0.593750 1.000000
vt 0.593750 0.500000
vt 0.562500 1.000000
vt 0.562500 0.500000
vt 0.531250 1.000000
vt 0.531250 0.500000
vt 0.500000 1.000000
vt 0.500000 0.500000
vt 0.468750 1.000000
vt 0.468750 0.500000
vt 0.437500 1.000000
vt 0.437500 0.500000
vt 0.406250 1.000000
vt 0.406250 0.500000
vt 0.375000 1.000000
vt 0.375000 0.500000
vt 0.343750 1.000000
vt 0.343750 0.500000
vt 0.312500 1.000000
vt 0.312500 0.500000
vt 0.281250 1.000000
vt 0.281250 0.500000
vt 0.250000 1.000000
vt 0.250000 0.500000
vt 0.218750 1.000000
vt 0.218750 0.500000
vt 0.187500 1.000000
vt 0.187500 0.500000
vt 0.156250 1.000000
vt 0.156250 0.500000
vt 0.125000 1.000000
vt 0.125000 0.500000
vt 0.093750 1.000000
vt 0.093750 0.500000
vt 0.062500 1.000000
vt 0.062500 0.500000
vt 0.031250 1.000000
vt 0.031250 0.500000
vt 0.000000 1.000000
vt 0.000000 0.500000
vt 1.000000 0.500000
vt 0.968750 0.500000
vt 0.968750 1.000000
vt 1.000000 1.000000
vt 0.937500 0.500000
vt 0.937500 1.000000
vt 0.906250 0.500000
vt 0.906250 1.000000
vt 0.875000 0.500000
vt 0.875000 1.000000
vt 0.843750 0.500000
vt 0.843750 1.000000
vt 0.812500 0.500000
vt 0.812500 1.000000
vt 0.781250 0.500000
vt 0.781250 1.000000
vt 0.750000 0.500000
vt 0.750000 1.000000
vt 0.718750 0.500000
vt 0.718750 1.000000
vt 0.687500 0.500000
vt 0.687500 1.000000
vt 0.656250 0.500000
vt 0.656250 1.000000
vt 0.625000 0.500000
vt 0.625000 1.000000
vt 0.593750 0.500000
vt 0.593750 1.000000
vt 0.562500 0.500000
vt 0.562500 1.000000
vt 0.531250 0.500000
vt 0.531250 1.000000
vt 0.500000 0.500000
vt 0.500000 1.000000
vt 0.468750 0.500000
vt 0.468750 1.000000
vt 0.437500 0.500000
vt 0.437500 1.000000
vt 0.406250 0.500000
vt 0.406250 1.000000
vt 0.375000 0.500000
vt 0.375000 1.000000
vt 0.343750 0.500000
vt 0.343750 1.000000
vt 0.312500 0.500000
vt 0.312500 1.000000
vt 0.281250 0.500000
vt 0.281250 1.000000
vt 0.250000 0.500000
vt 0.250000 1.000000
vt 0.218750 0.500000
vt 0.218750 1.000000
vt 0.187500 0.500000
vt 0.187500 1.000000
vt 0.156250 0.500000
vt 0.156250 1.000000
vt 0.125000 0.500000
vt 0.125000 1.000000
vt 0.093750 0.500000
vt 0.093750 1.000000
vt 0.062500 0.500000
vt 0.062500 1.000000
vt 0.031250 0.500000
vt 0.031250 1.000000
vt 0.000000 0.500000
vt 0.000000 1.000000
vn 0.0000 0.0000 -1.0000
vn 0.1951 0.0000 -0.9808
vn 0.3827 0.0000 -0.9239
vn 0.5556 0.0000 -0.8315
vn 0.7071 0.0000 -0.7071
vn 0.8315 0.0000 -0.5556
vn 0.9239 0.0000 -0.3827
vn 0.9808 0.0000 -0.1951
vn 1.0000 -0.0000 -0.0000
vn 0.9808 -0.0000 0.1951
vn 0.9239 -0.0000 0.3827
vn 0.8315 -0.0000 0.5556
vn 0.7071 -0.0000 0.7071
vn 0.5556 -0.0000 0.8315
vn 0.3827 -0.0000 0.9239
vn 0.1951 -0.0000 0.9808
vn -0.0000 -0.0000 1.0000
vn -0.1951 -0.0000 0.9808
vn -0.3827 -0.0000 0.9239
vn -0.5556 -0.0000 0.8315
vn -0.7071 -0.0000 0.7071
vn -0.8315 -0.0000 0.5556
vn -0.9239 -0.0000 0.3827
vn -0.9808 -0.0000 0.1951
vn -1.0000 0.0000 -0.0000
vn -0.9808 0.0000 -0.1951
vn -0.9239 0.0000 -0.3827
vn -0.8315 0.0000 -0.5556
vn -0.7071 0.0000 -0.7071
vn -0.5556 0.0000 -0.8315
vn -0.3827 0.0000 -0.9239
vn -0.1951 0.0000 -0.9808
vn 0.0000 1.0000 0.0000
vn 0.0000 -1.0000 0.0000
usemtl None
s 1
f 1/1/1 2/2/1 3/3/2 4/4/2
f 4/4/2 3/3/2 5/5/3 6/6/3
f 6/6/3 5/5/3 7/7/4 8/8/4
f 8/8/4 7/7/4 9/9/5 10/10/5
f 10/10/5 9/9/5 11/11/6 12/12/6
f 12/12/6 11/11/6 13/13/7 14/14/7
f 14/14/7 13/13/7 15/15/8 16/16/8
f 16/16/8 15/15/8 17/17/9 18/18/9
f 18/18/9 17/17/9 19/19/10 20/20/10
f 20/20/10 19/19/10 21/21/11 22/22/11
f 22/22/11 21/21/11 23/23/12 24/24/12
f 24/24/12 23/23/12 25/25/13 26/26/13
f 26/26/13 25/25/13 27/27/14 28/28/14
f 28/28/14 27/27/14 29/29/15 30/30/15
f 30/30/15 29/29/15 31/31/16 32/32/16
f 32/32/16 31/31/16 33/33/17 34/34/17
f 34/34/17 33/33/17 35/35/18 36/36/18
f 36/36/18 35/35/18 37/37/19 38/38/19
f 38/38/19 37/37/19 39/39/20 40/40/20
f 40/40/20 39/39/20 41/41/21 42/42/21
f 42/42/21 41/41/21 43/43/22 44/44/22
f 44/44/22 43/43/22 45/45/23 46/46/23
f 46/46/23 45/45/23 47/47/24 48/48/24
f 48/48/24 47/47/24 49/49/25 50/50/25
f 50/50/25 49/49/25 51/51/26 52/52/26
f 52/52/26 51/51/26 53/53/27 54/54/27
f 54/54/27 53/53/27 55/55/28 56/56/28
f 56/56/28 55/55/28 57/57/29 58/58/29
f 58/58/29 57/57/29 59/59/30 60/60/30
f 60/60/30 59/59/30 61/61/31 62/62/31
f 62/62/31 61/61/31 63/63/32 64/64/32
f 64/64/32 63/63/32 2/65/1 1/66/1
f 65/67/17 68/68/18 67/69/18 66/70/17
f 68/68/18 70/71/19 69/72/19 67/69/18
f 70/71/19 72/73/20 71/74/20 69/72/19
f 72/73/20 74/75/21 73/76/21 71/74/20
f 74/75/21 76/77/22 75/78/22 73/76/21
f 76/77/22 78/79/23 77/80/23 75/78/22
f 78/79/23 80/81/24 79/82/24 77/80/23
f 80/81/24 82/83/25 81/84/25 79/82/24
f 82/83/25 84/85/26 83/86/26 81/84/25
f 84/85/26 86/87/27 85/88/27 83/86/26
f 86/87/27 88/89/28 87/90/28 85/88/27
f 88/89/28 90/91/29 89/92/29 87/90/28
f 90/91/29 92/93/30 91/94/30 89/92/29
f 92/93/30 94/95/31 93/96/31 91/94/30
f 94/95/31 96/97/32 95/98/32 93/96/31
f 96/97/32 98/99/1 97/100/1 95/98/32
f 98/99/1 100/101/2 99/102/2 97/100/1
f 100/101/2 102/103/3 101/104/3 99/102/2
f 102/103/3 104/105/4 103/106/4 101/104/3
f 104/105/4 106/107/5 105/108/5 103/106/4
f 106/107/5 108/109/6 107/110/6 105/108/5
f 108/109/6 110/111/7 109/112/7 107/110/6
f 110/111/7 112/113/8 111/114/8 109/112/7
f 112/113/8 114/115/9 113/116/9 111/114/8
f 114/115/9 116/117/10 115/118/10 113/116/9
f 116/117/10 118/119/11 117/120/11 115/118/10
f 118/119/11 120/121/12 119/122/12 117/120/11
f 120/121/12 122/123/13 121/124/13 119/122/12
f 122/123/13 124/125/14 123/126/14 121/124/13
f 124/125/14 126/127/15 125/128/15 123/126/14
f 126/127/15 128/129/16 127/130/16 125/128/15
f 128/129/16 65/131/17 66/132/17 127/130/16
f 3/3/33 2/2/33 66/70/33 67/69/33
f 1/1/34 4/4/34 68/68/34 65/67/34
f 5/5/33 3/3/33 67/69/33 69/72/33
f 4/4/34 6/6/34 70/71/34 68/68/34
f 7/7/33 5/5/33 69/72/33 71/74/33
f 6/6/34 8/8/34 72/73/34 70/71/34
f 9/9/33 7/7/33 71/74/33 73/76/33
f 8/8/34 10/10/34 74/75/34 72/73/34
f 11/11/33 9/9/33 73/76/33 75/78/33
f 10/10/34 12/12/34 76/77/34 74/75/34
f 13/13/33 11/11/33 75/78/33 77/80/33
f 12/12/34 14/14/34 78/79/34 76/77/34
f 15/15/33 13/13/33 77/80/33 79/82/33
f 14/14/34 16/16/34 80/81/34 78/79/34
f 17/17/33 15/15/33 79/82/33 81/84/33
f 16/16/34 18/18/34 82/83/34 80/81/34
f 19/19/33 17/17/33 81/84/33 83/86/33
f 18/18/34 20/20/34 84/85/34 82/83/34
f 21/21/33 19/19/33 83/86/33 85/88/33
f 20/20/34 22/22/34 86/87/34 84/85/34
f 23/23/33 21/21/33 85/88/33 87/90/33
f 22/22/34 24/24/34 88/89/34 86/87/34
f 25/25/33 23/23/33 87/90/33 89/92/33
f 24/24/34 26/26/34 90/91/34 88/89/34
f 27/27/33 25/25/33 89/92/33 91/94/33
f 26/26/34 28/28/34 92/93/34 90/91/34
f 29/29/33 27/27/33 91/94/33 93/96/33
f 28/28/34 30/30/34 94/95/34 92/93/34
f 31/31/33 29/29/33 93/96/33 95/98/33
f 30/30/34 32/32/34 96/97/34 94/95/34
f 32/32/34 34/34/34 98/99/34 96/97/34
f 35/35/33 33/33/33 97/100/33 99/102/33
f 34/34/34 36/36/34 100/101/34 98/99/34
f 36/36/34 38/38/34 102/103/34 100/101/34
f 39/39/33 37/37/33 101/104/33 103/106/33
f 38/38/34 40/40/34 104/105/34 102/103/34
f 41/41/33 39/39/33 103/106/33 105/108/33
f 40/40/34 42/42/34 106/107/34 104/105/34
f 43/43/33 41/41/33 105/108/33 107/110/33
f 42/42/34 44/44/34 108/109/34 106/107/34
f 45/45/33 43/43/33 107/110/33 109/112/33
f 44/44/34 46/46/34 110/111/34 108/109/34
f 47/47/33 45/45/33 109/112/33 111/114/33
f 46/46/34 48/48/34 112/113/34 110/111/34
f 49/49/33 47/47/33 111/114/33 113/116/33
f 48/48/34 50/50/34 114/115/34 112/113/34
f 51/51/33 49/49/33 113/116/33 115/118/33
f 50/50/34 52/52/34 116/117/34 114/115/34
f 53/53/33 51/51/33 115/118/33 117/120/33
f 52/52/34 54/54/34 118/119/34 116/117/34
f 55/55/33 53/53/33 117/120/33 119/122/33
f 54/54/34 56/56/34 120/121/34 118/119/34
f 56/56/34 58/58/34 122/123/34 120/121/34
f 58/58/34 60/60/34 124/125/34 122/123/34
f 61/61/33 59/59/33 123/126/33 125/128/33
f 60/60/34 62/62/34 126/127/34 124/125/34
f 62/62/34 64/64/34 128/129/34 126/127/34
f 2/65/33 63/63/33 127/130/33 66/132/33
f 33/33/33 31/31/33 95/98/33 97/100/33
f 63/63/33 61/61/33 125/128/33 127/130/33
f 37/37/33 35/35/33 99/102/33 101/104/33
f 57/57/33 55/55/33 119/122/33 121/124/33
f 59/59/33 57/57/33 121/124/33 123/126/33
f 64/64/34 1/66/34 65/131/34 128/129/34
